<?xml version="1.0" encoding="utf-8"?>
<!-- Generator: Adobe Illustrator 16.0.0, SVG Export Plug-In . SVG Version: 6.00 Build 0)  -->
<!DOCTYPE svg PUBLIC "-//W3C//DTD SVG 1.1//EN" "http://www.w3.org/Graphics/SVG/1.1/DTD/svg11.dtd">
<svg version="1.1" id="Layer_1" xmlns="http://www.w3.org/2000/svg" xmlns:xlink="http://www.w3.org/1999/xlink" x="0px" y="0px"
	 width="792px" height="612px" viewBox="0 0 792 612" enable-background="new 0 0 792 612" xml:space="preserve">
<g>
	<g id="D0GvYx_1_">
		<g>
			<path fill="#818181" d="M410.006,261.437c0.05,0.249,0.131,0.496,0.145,0.748c0.235,4.617,1.271,9.062,2.972,13.348
				c1.956,4.919,4.715,9.348,8.325,13.322c0.223-0.319,0.406-0.604,0.611-0.873c2.305-3.016,4.597-6.041,6.936-9.031
				c0.35-0.447,0.408-0.779,0.225-1.294c-1.824-5.131,0.426-10.712,5.298-13.073c0.583-0.284,0.771-0.597,0.786-1.209
				c0.077-2.713,0.104-5.431,0.325-8.133c0.286-3.491,0.737-6.968,1.129-10.45c0.056-0.501-0.036-0.794-0.561-1.046
				c-2.67-1.282-4.527-3.332-5.476-6.149c-0.193-0.576-0.477-0.706-1.037-0.689c-4.713,0.134-9.377,0.646-13.971,1.721
				c-0.26,0.061-0.568,0.274-0.689,0.503c-2.303,4.397-3.85,9.043-4.512,13.969c-0.197,1.462-0.339,2.93-0.506,4.395
				 M456.644,303.616c0.25-0.047,0.499-0.105,0.751-0.14c2.447-0.35,4.945-0.487,7.334-1.074
				c14.947-3.678,25.41-12.68,31.479-26.816c0.211-0.493,0.189-0.855-0.138-1.318c-2.884-4.09-6.003-7.985-9.421-11.644
				c-0.419-0.448-0.721-0.519-1.299-0.27c-5.03,2.167-10.797,0.228-13.555-4.517c-0.138-0.237-0.28-0.472-0.428-0.718
				c-8.273,2.656-15.777,6.609-22.688,11.773c0.979,1.744,1.472,3.541,1.373,5.414c-0.236,4.478-2.455,7.674-6.538,9.529
				c-0.536,0.244-0.654,0.517-0.575,1.026c0.879,5.707,2.081,11.344,3.579,16.923c0.251,0.936,0.732,1.25,1.607,1.328
				c1.527,0.135,3.051,0.331,4.576,0.502 M499.338,257.493c-0.126-1.121-0.252-2.242-0.389-3.457
				c-2.382-0.101-4.731-0.199-6.973-0.293c-0.397,1.21-0.681,2.283-1.108,3.296c-0.214,0.503-0.179,0.769,0.18,1.168
				c1.659,1.842,3.294,3.709,4.903,5.594c0.897,1.051,1.729,2.156,2.655,3.316c0.088-0.573,0.171-1.017,0.224-1.464
				c0.176-1.463,0.34-2.926,0.508-4.389 M452.701,215.142c-0.248,0.05-0.504,0.17-0.738,0.137c-0.773-0.113-1.088,0.271-1.32,0.953
				c-1.008,2.959-2.044,5.909-3.104,8.85c-0.179,0.495-0.06,0.762,0.317,1.077c1.594,1.335,2.689,3.015,3.284,5.006
				c0.245,0.821,0.188,1.898,0.709,2.424c0.547,0.551,1.624,0.565,2.462,0.836c6.919,2.242,13.413,5.38,19.506,9.345
				c0.482,0.312,0.807,0.385,1.347,0.023c5.068-3.387,11.751-1.97,15.058,3.179c0.307,0.477,0.611,0.639,1.164,0.619
				c1.197-0.039,2.398-0.016,3.599,0.015c0.872,0.021,1.743,0.095,2.69,0.148c-0.068-0.322-0.097-0.516-0.152-0.701
				c-2.972-9.894-8.709-17.811-17.126-23.763c-5.865-4.148-12.38-6.717-19.516-7.659c-1.409-0.187-2.824-0.326-4.236-0.488
				 M441.516,263.589c0.721,0.259,1.348,0.539,2.003,0.698c0.323,0.079,0.794,0.061,1.04-0.124
				c7.734-5.772,16.141-10.236,25.381-13.075c0.854-0.263,0.708-0.938,0.859-1.479c0.05-0.174-0.297-0.544-0.541-0.704
				c-3.824-2.496-7.824-4.675-12.055-6.394c-2.649-1.076-5.361-1.998-8.053-2.992c-1.371,2.198-3.077,3.876-5.389,4.51
				c-1.652,0.452-1.961,1.406-2.008,2.78c-0.002,0.057-0.002,0.114-0.008,0.171c-0.323,3.317-0.693,6.632-0.953,9.953
				C441.619,259.149,441.602,261.377,441.516,263.589z M439.794,301.048c-0.653-3.006-1.323-5.88-1.894-8.772
				c-0.445-2.257-0.757-4.54-1.159-6.805c-0.074-0.417-0.183-1.015-0.472-1.173c-0.835-0.458-1.768-0.734-2.84-1.151
				c-2.465,3.298-4.965,6.642-7.491,10.021C430.188,296.696,434.739,299.26,439.794,301.048z M420.173,231.347
				c3.573-0.254,7.028-0.498,10.536-0.747c1.977-4.69,5.621-7.059,10.756-7.1c0.786-2.325,1.557-4.602,2.371-7.013
				C434.308,218.961,426.496,223.884,420.173,231.347z"/>
			<path fill-rule="evenodd" clip-rule="evenodd" fill="#818181" d="M452.701,303.616c-1.525-0.171-3.049-0.367-4.576-0.502
				c-0.875-0.078-1.356-0.393-1.607-1.328c-1.498-5.579-2.7-11.216-3.579-16.923c-0.079-0.51,0.039-0.782,0.575-1.026
				c4.083-1.855,6.302-5.052,6.538-9.529c0.099-1.873-0.394-3.67-1.373-5.414c6.911-5.164,14.415-9.117,22.688-11.773
				c0.147,0.246,0.29,0.48,0.428,0.718c2.758,4.744,8.524,6.684,13.555,4.517c0.578-0.249,0.88-0.179,1.299,0.27
				c3.418,3.658,6.537,7.554,9.421,11.644c0.327,0.463,0.349,0.825,0.138,1.318c-6.068,14.137-16.531,23.139-31.479,26.816
				c-2.389,0.587-4.887,0.725-7.334,1.074c-0.252,0.034-0.501,0.093-0.751,0.14C455.33,303.616,454.015,303.616,452.701,303.616z"/>
			<path fill-rule="evenodd" clip-rule="evenodd" fill="#818181" d="M410.006,257.493c0.167-1.465,0.309-2.933,0.506-4.395
				c0.662-4.926,2.209-9.571,4.512-13.969c0.121-0.229,0.43-0.442,0.689-0.503c4.594-1.075,9.258-1.587,13.971-1.721
				c0.561-0.017,0.844,0.113,1.037,0.689c0.948,2.817,2.806,4.867,5.476,6.149c0.524,0.252,0.616,0.545,0.561,1.046
				c-0.392,3.482-0.843,6.959-1.129,10.45c-0.222,2.702-0.248,5.42-0.325,8.133c-0.016,0.612-0.203,0.925-0.786,1.209
				c-4.872,2.361-7.122,7.942-5.298,13.073c0.184,0.515,0.125,0.847-0.225,1.294c-2.339,2.99-4.631,6.016-6.936,9.031
				c-0.205,0.269-0.389,0.554-0.611,0.873c-3.61-3.975-6.369-8.403-8.325-13.322c-1.701-4.285-2.736-8.73-2.972-13.348
				c-0.014-0.252-0.095-0.499-0.145-0.748C410.006,260.122,410.006,258.807,410.006,257.493z"/>
			<path fill-rule="evenodd" clip-rule="evenodd" fill="#818181" d="M456.644,215.142c1.412,0.162,2.827,0.302,4.236,0.488
				c7.136,0.942,13.65,3.511,19.516,7.659c8.417,5.952,14.154,13.869,17.126,23.763c0.056,0.186,0.084,0.379,0.152,0.701
				c-0.947-0.054-1.818-0.127-2.69-0.148c-1.2-0.03-2.401-0.054-3.599-0.015c-0.553,0.02-0.857-0.143-1.164-0.619
				c-3.307-5.148-9.989-6.565-15.058-3.179c-0.54,0.361-0.864,0.289-1.347-0.023c-6.093-3.965-12.587-7.103-19.506-9.345
				c-0.838-0.271-1.915-0.285-2.462-0.836c-0.521-0.525-0.464-1.603-0.709-2.424c-0.595-1.991-1.69-3.671-3.284-5.006
				c-0.377-0.315-0.496-0.582-0.317-1.077c1.061-2.94,2.097-5.891,3.104-8.85c0.232-0.682,0.547-1.066,1.32-0.953
				c0.234,0.033,0.49-0.087,0.738-0.137C454.015,215.142,455.33,215.142,456.644,215.142z"/>
			<path fill-rule="evenodd" clip-rule="evenodd" fill="#818181" d="M499.338,261.265c-0.168,1.463-0.332,2.926-0.508,4.389
				c-0.053,0.447-0.136,0.891-0.224,1.464c-0.926-1.16-1.758-2.266-2.655-3.316c-1.609-1.885-3.244-3.752-4.903-5.594
				c-0.358-0.399-0.394-0.665-0.18-1.168c0.428-1.013,0.711-2.086,1.108-3.296c2.241,0.094,4.591,0.192,6.973,0.293
				c0.137,1.215,0.263,2.336,0.389,3.457C499.338,258.75,499.338,260.007,499.338,261.265z"/>
			<path fill-rule="evenodd" clip-rule="evenodd" fill="#818181" d="M441.516,263.589c0.086-2.212,0.104-4.439,0.277-6.655
				c0.26-3.321,0.63-6.636,0.953-9.953c0.006-0.057,0.006-0.114,0.008-0.171c0.047-1.374,0.355-2.328,2.008-2.78
				c2.312-0.634,4.018-2.312,5.389-4.51c2.691,0.994,5.403,1.916,8.053,2.992c4.23,1.719,8.23,3.897,12.055,6.394
				c0.244,0.16,0.591,0.53,0.541,0.704c-0.151,0.541-0.006,1.216-0.859,1.479c-9.24,2.839-17.646,7.303-25.381,13.075
				c-0.246,0.185-0.717,0.203-1.04,0.124C442.863,264.128,442.236,263.848,441.516,263.589z"/>
			<path fill-rule="evenodd" clip-rule="evenodd" fill="#818181" d="M439.794,301.048c-5.055-1.788-9.606-4.352-13.855-7.881
				c2.526-3.379,5.026-6.723,7.491-10.021c1.072,0.417,2.005,0.693,2.84,1.151c0.289,0.158,0.397,0.756,0.472,1.173
				c0.402,2.265,0.714,4.548,1.159,6.805C438.471,295.168,439.141,298.042,439.794,301.048z"/>
			<path fill-rule="evenodd" clip-rule="evenodd" fill="#818181" d="M420.173,231.347c6.323-7.463,14.135-12.386,23.663-14.859
				c-0.814,2.411-1.585,4.688-2.371,7.013c-5.135,0.041-8.779,2.409-10.756,7.1C427.201,230.849,423.746,231.093,420.173,231.347z"
				/>
		</g>
	</g>
	<rect x="325.387" y="315.99" fill="none" width="258.571" height="32.673"/>
	<text transform="matrix(1 0 0 1 378.6016 342.5967)" fill="#818181" font-family="'Gotham-XLight'" font-size="37.4741">SafetyNet</text>
</g>
</svg>
